<?xml version="1.0" encoding="utf-8"?>
<!-- Generator: Adobe Illustrator 18.1.0, SVG Export Plug-In . SVG Version: 6.00 Build 0)  -->
<svg version="1.1" baseProfile="tiny" id="Layer_1" xmlns="http://www.w3.org/2000/svg" xmlns:xlink="http://www.w3.org/1999/xlink"
	 x="0px" y="0px" viewBox="0 0 35 35" xml:space="preserve">
<g>
	<path fill="#1f1f1f" class="fill" d="M17.5,34.2C8.4,34.2,1,26.8,1,17.7C1,8.6,8.4,1.2,17.5,1.2C26.6,1.2,34,8.6,34,17.7
		C34,26.8,26.6,34.2,17.5,34.2z M17.5,2.2C8.9,2.2,2,9.1,2,17.7s7,15.5,15.5,15.5S33,26.2,33,17.7S26,2.2,17.5,2.2z"/>
	<path class="fill" fill="#1f1f1f" d="M17.5,31.2C10,31.2,4,25.1,4,17.7C4,10.2,10,4.2,17.5,4.2c7.4,0,13.5,6.1,13.5,13.5
		C31,25.1,24.9,31.2,17.5,31.2z M17.5,5.2C10.6,5.2,5,10.8,5,17.7s5.6,12.5,12.5,12.5c6.9,0,12.5-5.6,12.5-12.5S24.4,5.2,17.5,5.2z"
		/>
	<path  fill="#1f1f1f" class="fill" d="M17.5,20c-0.6,0-1.2-0.3-1.7-0.7c-0.4-0.4-0.6-1-0.6-1.6c0-0.6,0.3-1.2,0.7-1.6c0.9-0.8,2.4-0.8,3.2,0.1
		c0.9,0.9,0.8,2.4-0.1,3.2C18.6,19.8,18.1,20,17.5,20z M17.5,16.4c-0.3,0-0.6,0.1-0.9,0.3c-0.3,0.2-0.4,0.5-0.4,0.9
		c0,0.3,0.1,0.7,0.3,0.9c0.2,0.3,0.6,0.4,0.9,0.4c0.3,0,0.6-0.1,0.9-0.3c0.5-0.5,0.5-1.3,0.1-1.8C18.2,16.6,17.8,16.4,17.5,16.4z"/>
	
		<rect class="fill" x="17.9" y="19.1" transform="matrix(0.6786 0.7345 -0.7345 0.6786 20.6336 -7.8546)" fill="#1f1f1f" width="2.8" height="1"/>
	<rect class="fill" x="15" y="18.1" transform="matrix(0.6788 0.7344 -0.7344 0.6788 19.3077 -5.1352)" fill="#1f1f1f" width="1" height="2.8"/>
	<rect class="fill" x="8.4" y="12.5" transform="matrix(0.6615 0.7499 -0.7499 0.6615 14.288 -5.5781)" fill="#1f1f1f" width="9.9" height="1"/>
	
		<rect class="fill" x="20.6" y="10.8" transform="matrix(0.6787 0.7344 -0.7344 0.6787 17.3264 -10.858)" fill="#1f1f1f" width="1" height="7.2"/>
	<rect class="fill" x="17" y="27.9" fill="#1f1f1f" width="1" height="1.9"/>
	<rect class="fill" x="17" y="5.6" fill="#1f1f1f" width="1" height="1.9"/>
	<rect class="fill" x="5.4" y="17.2" fill="#1f1f1f" width="1.9" height="1"/>
	<rect class="fill" x="27.6" y="17.2" fill="#1f1f1f" width="1.9" height="1"/>
</g>
</svg>
