<?xml version="1.0" encoding="utf-8"?>
<!-- Generator: Adobe Illustrator 18.1.0, SVG Export Plug-In . SVG Version: 6.00 Build 0)  -->
<svg version="1.1" baseProfile="tiny" id="Layer_1" xmlns="http://www.w3.org/2000/svg" xmlns:xlink="http://www.w3.org/1999/xlink"
	 x="0px" y="0px" viewBox="0 0 39 39" xml:space="preserve">
<g>
	<path class="fill" fill="#1f1f1f" d="M12.5,23.1l-2.1-2.7c-1.5-1.9-2.3-4.2-2.3-6.6v-7h1v7c0,2.1,0.7,4.3,2.1,5.9l2.1,2.7L12.5,23.1z"/>
	<path class="fill" fill="#1f1f1f" d="M16.7,23.1l-0.8-0.6l2.1-2.7c1.3-1.7,2.1-3.8,2.1-5.9v-6c-4-0.1-7.8-1.1-9.7-2L9.9,5.7l0.4-0.9L10.8,5
		c1.9,0.9,5.7,1.9,9.8,1.9h0.5v7c0,2.4-0.8,4.7-2.3,6.6L16.7,23.1z"/>
	<path class="fill" fill="#1f1f1f" d="M2.1,33.9h-1v-1.5c0-5.8,4.7-10.5,10.5-10.5l1.5,0l0,1l-1.5,0c-5.2,0-9.5,4.3-9.5,9.5V33.9z"/>
	<path class="fill" fill="#1f1f1f" d="M28.1,33.9h-1v-1.5c0-5.2-4.2-9.5-9.5-9.5l-1.5,0l0-1l1.5,0c5.8,0,10.5,4.7,10.5,10.5V33.9z"/>
	<path class="fill" fill="#1f1f1f" d="M22.6,14.9h-0.5v-1h0.5c0.8,0,1.5-0.7,1.5-1.5s-0.7-1.5-1.5-1.5h-0.5v-4c0-2-1.3-3.8-3.2-4.3
		c-1.5-0.4-3-0.6-4.3-0.6c-1.3,0-2.7,0.2-4.3,0.6C8.5,3.1,7.1,4.9,7.1,6.9v4H6.6c-0.8,0-1.5,0.7-1.5,1.5s0.7,1.5,1.5,1.5h0.5v1H6.6
		c-1.4,0-2.5-1.1-2.5-2.5c0-1.2,0.9-2.2,2-2.4V6.9c0-2.5,1.6-4.6,4-5.3c1.6-0.4,3.1-0.7,4.5-0.7c1.4,0,2.9,0.2,4.5,0.7
		c2.3,0.6,4,2.8,4,5.3V10c1.1,0.2,2,1.2,2,2.4C25.1,13.8,24,14.9,22.6,14.9z"/>
	<rect class="fill" x="10.6" y="11.9" fill="#1f1f1f" width="3" height="1"/>
	<rect class="fill" x="15.6" y="11.9" fill="#1f1f1f" width="3" height="1"/>
	<path class="fill" fill="#1f1f1f" d="M17.1,25.9h-5v-4h5V25.9z M13.1,24.9h3v-2h-3V24.9z"/>
	<polygon class="fill" fill="#1f1f1f" points="14.6,38.1 10.1,34.6 12.2,24.8 13.2,25.1 11.2,34.2 14.6,36.8 18.1,34.2 16,25.1 17,24.8 
		19.2,34.6 	"/>
	<path class="fill" fill="#1f1f1f" d="M23.8,19.1l-0.8-0.6l2.4-3.6h5.3c3.5,0,6.4-2.9,6.4-6.4V8.4c0-3.5-2.9-6.4-6.4-6.4h-8.6v-1h8.6
		c4.1,0,7.4,3.3,7.4,7.4v0.1c0,4.1-3.3,7.4-7.4,7.4h-4.8L23.8,19.1z"/>
	<rect class="fill" x="25.1" y="5.9" fill="#1f1f1f" width="8" height="1"/>
	<rect class="fill" x="25.1" y="7.9" fill="#1f1f1f" width="8" height="1"/>
	<rect class="fill" x="26.1" y="9.9" fill="#1f1f1f" width="7" height="1"/>
</g>
</svg>
