<?xml version="1.0" encoding="utf-8"?>
<!-- Generator: Adobe Illustrator 18.1.0, SVG Export Plug-In . SVG Version: 6.00 Build 0)  -->
<svg version="1.1" baseProfile="tiny" id="Layer_1" xmlns="http://www.w3.org/2000/svg" xmlns:xlink="http://www.w3.org/1999/xlink"
	 x="0px" y="0px" viewBox="0 0 35 35" xml:space="preserve">
<g onmouseover="dccd">
	<path class="fill" fill="#1f1f1f" d="M19.3,30.2L4.6,15.5l9.7-9.7c3.3-3.3,7.2-4.9,11.8-4.9c2,0,4.1,0.3,6.6,0.9L33,1.9L33,2.1
		c1.3,5.3,2.1,12.3-4,18.4L19.3,30.2z M6,15.5l13.3,13.3l9-9c5.6-5.6,5.1-12.1,3.8-17.1c-2.2-0.5-4.2-0.8-6.1-0.8
		c-4.3,0-7.9,1.5-11.1,4.6L6,15.5z"/>
	
		<rect class="fill" x="21.6" y="5.7" transform="matrix(0.7071 0.7071 -0.7071 0.7071 12.7462 -18.4646)" fill="#1f1f1f" width="14.2" height="1"/>
	<path class="fill" fill="#1f1f1f" d="M20.9,18.8c-1.3,0-2.5-0.5-3.5-1.4c-0.9-0.9-1.4-2.2-1.4-3.5c0-1.3,0.5-2.5,1.4-3.5C18.3,9.5,19.6,9,20.9,9
		s2.5,0.5,3.5,1.4c0.9,0.9,1.4,2.2,1.4,3.5c0,1.3-0.5,2.5-1.4,3.5C23.4,18.3,22.2,18.8,20.9,18.8z M20.9,10c-1,0-2,0.4-2.8,1.1
		c-0.7,0.7-1.1,1.7-1.1,2.8c0,1,0.4,2,1.1,2.8c1.5,1.5,4,1.5,5.5,0c0.7-0.7,1.1-1.7,1.1-2.8c0-1-0.4-2-1.1-2.8
		C22.9,10.4,21.9,10,20.9,10z"/>
	<path class="fill" fill="#1f1f1f" d="M22.4,13.1l-0.4-0.4c-0.7-0.7-1.7-0.7-2.4,0l-0.4,0.4l-0.7-0.7L19,12c1.1-1.1,2.8-1.1,3.8,0l0.4,0.4
		L22.4,13.1z"/>
	<path class="fill" fill="#1f1f1f" d="M13.9,31l-10-10l3.8-3.8l10,10L13.9,31z M5.3,20.9l8.6,8.6l2.4-2.4l-8.6-8.6L5.3,20.9z"/>
	
		<rect class="fill" x="8.7" y="20.9" transform="matrix(0.7071 0.7071 -0.7071 0.7071 18.5999 6.447437e-002)" fill="#1f1f1f" width="1" height="3.2"/>
	<rect class="fill" x="11.8" y="24" transform="matrix(0.7071 0.7072 -0.7072 0.7071 21.7128 -1.2228)" fill="#1f1f1f" width="1" height="3.2"/>
	<path class="fill" fill="#1f1f1f" d="M5.4,16.1l-4.8-2.9l3.2-3.2C4.7,9.2,5.8,8.8,7,9l4.8,0.7L5.4,16.1z M2.3,13.1l3,1.8l4.5-4.5L6.9,10
		C6,9.9,5.1,10.2,4.5,10.8L2.3,13.1z"/>
	<path class="fill" fill="#1f1f1f" d="M21.6,34.2l-2.9-4.8l6.4-6.4l0.7,4.8c0.2,1.2-0.2,2.4-1.1,3.2L21.6,34.2z M20,29.6l1.8,3l2.3-2.3
		c0.6-0.6,0.9-1.5,0.8-2.4l-0.4-2.8L20,29.6z"/>
	<path class="fill" fill="#1f1f1f" d="M6.5,32.8c-1,0-2.1-0.2-3.6-0.5l-0.3-0.1l-0.1-0.3c-0.8-3.9-0.8-5.7,1.7-8.2l0.4-0.4L5.3,24l-0.4,0.4
		c-2.1,2.1-2.2,3.3-1.5,7c3.7,0.7,4.9,0.6,7-1.5l0.4-0.4l0.7,0.7l-0.4,0.4C9.5,32.2,8.2,32.8,6.5,32.8z"/>
	<rect class="fill" x="6" y="26.2" transform="matrix(0.7071 0.7071 -0.7071 0.7071 21.9269 3.6974)" fill="#1f1f1f" width="1" height="4.3"/>
</g>
</svg>
