<?xml version="1.0" encoding="utf-8"?>
<!-- Generator: Adobe Illustrator 18.1.0, SVG Export Plug-In . SVG Version: 6.00 Build 0)  -->
<svg version="1.1" baseProfile="tiny" id="Layer_1" xmlns="http://www.w3.org/2000/svg" xmlns:xlink="http://www.w3.org/1999/xlink"
	 x="0px" y="0px" viewBox="0 0 40 35" xml:space="preserve">
<g>
	<path class="fill" fill="#1f1f1f" d="M12.2,34H0.8V14.3h21.7c1.6,0,2.8,1.3,2.8,2.8c0,1.6-1.3,2.9-2.8,2.9h-7.6v11.3C14.9,32.8,13.7,34,12.2,34z
		 M1.8,33h10.3c1,0,1.7-0.8,1.7-1.7V19h8.6c1,0,1.8-0.8,1.8-1.8c0-1.1-0.8-1.9-1.8-1.9H1.8V33z"/>
	<rect class="fill" x="10.2" y="23.7" fill="#1f1f1f" width="4.4" height="1"/>
	<rect class="fill" x="10.2" y="19" fill="#1f1f1f" width="4.4" height="1"/>
	<rect class="fill" x="10.2" y="28.4" fill="#1f1f1f" width="4.4" height="1"/>
	<path class="fill" fill="#1f1f1f" d="M23.1,24c-2.8,0-5.3-1.7-6.3-4.3l0.9-0.4c0.9,2.2,3,3.7,5.4,3.7c3.2,0,5.8-2.6,5.8-5.8
		c0-3.2-2.6-5.8-5.8-5.8c-2.3,0-4.4,1.4-5.4,3.6l-0.9-0.4c1.1-2.5,3.5-4.2,6.3-4.2c3.7,0,6.8,3,6.8,6.8C29.9,20.9,26.8,24,23.1,24z"
		/>
	<path class="fill" fill="#1f1f1f" d="M23.1,33.3c-3.2,0-6.3-0.9-9-2.7l0.6-0.8c2.5,1.7,5.4,2.5,8.4,2.5c8.4,0,15.2-6.8,15.2-15.2
		C38.2,8.8,31.4,2,23.1,2c-7.4,0-13.9,5.5-15,12.8l-1-0.2C8.3,6.9,15.2,1,23.1,1C32,1,39.2,8.3,39.2,17.2
		C39.2,26.1,32,33.3,23.1,33.3z"/>
	<g>
		<rect class="fill" x="22.6" y="25.8" fill="#1f1f1f" width="1" height="2.7"/>
		<rect class="fill" x="22.6" y="5.8" fill="#1f1f1f" width="1" height="2.7"/>
	</g>
	<g>
		
			<rect class="fill" x="28.8" y="23.7" transform="matrix(0.7069 0.7073 -0.7073 0.7069 25.9627 -14.2063)" fill="#1f1f1f" width="2.7" height="1"/>
		
			<rect class="fill" x="14.7" y="9.6" transform="matrix(0.7071 0.7071 -0.7071 0.7071 11.8339 -8.3567)" fill="#1f1f1f" width="2.7" height="1"/>
	</g>
	<g>
		<rect class="fill" x="31.7" y="16.7" fill="#1f1f1f" width="2.7" height="1"/>
	</g>
	<g>
		
			<rect class="fill" x="29.6" y="8.8" transform="matrix(0.7072 0.7071 -0.7071 0.7072 15.9675 -18.3398)" fill="#1f1f1f" width="1" height="2.7"/>
	</g>
</g>
</svg>
