<?xml version="1.0" standalone="no"?>
<!DOCTYPE svg PUBLIC "-//W3C//DTD SVG 20010904//EN"
 "http://www.w3.org/TR/2001/REC-SVG-20010904/DTD/svg10.dtd">
<svg version="1.0" xmlns="http://www.w3.org/2000/svg"
 width="300.000000pt" height="300.000000pt" viewBox="0 0 300.000000 300.000000"
 preserveAspectRatio="xMidYMid meet">
<metadata>
Created by potrace 1.11, written by Peter Selinger 2001-2013
</metadata>
<g transform="translate(0.000000,300.000000) scale(0.100000,-0.100000)"
fill="#000000" stroke="none">
<path d="M1390 2892 c0 -7 -4 -10 -10 -7 -5 3 -10 0 -10 -8 0 -8 -8 -18 -17
-21 -14 -6 -14 -8 5 -22 12 -8 22 -22 22 -30 0 -8 3 -13 8 -12 7 2 64 -51 70
-66 2 -4 -11 -21 -29 -37 l-32 -30 -63 62 -64 63 -25 -24 c-14 -13 -25 -28
-25 -35 0 -6 25 -35 55 -65 30 -30 55 -57 55 -61 0 -11 -48 -59 -59 -59 -6 0
-37 26 -69 58 -32 31 -57 55 -55 53 2 -2 -6 -10 -17 -18 -30 -21 -25 -40 29
-93 27 -27 49 -55 47 -62 -2 -15 -42 -58 -54 -58 -4 0 -34 27 -66 59 l-59 59
-30 -28 -31 -29 50 -49 c79 -78 77 -74 45 -109 l-29 -32 -58 59 c-33 33 -63
59 -68 60 -5 0 -20 -12 -33 -26 l-25 -27 62 -62 61 -62 -32 -32 -32 -33 -47
49 c-77 80 -75 79 -107 46 l-28 -28 63 -62 62 -62 -32 -30 -33 -31 -62 62 -62
62 -30 -29 -29 -29 57 -59 c31 -32 57 -62 59 -67 2 -5 -22 -33 -52 -63 l-56
-54 28 -29 c15 -16 26 -27 25 -25 -4 7 26 31 38 31 7 0 10 3 6 6 -6 6 62 74
74 74 3 0 18 -14 34 -30 l29 -30 -59 -60 c-53 -53 -57 -61 -44 -77 36 -46 41
-45 104 18 l61 59 32 -33 32 -33 -20 -22 c-12 -12 -25 -22 -31 -22 -6 0 -8 -4
-5 -9 3 -4 -8 -19 -24 -31 -36 -28 -36 -31 -7 -64 l22 -25 58 61 58 61 35 -34
34 -33 -60 -61 -60 -61 30 -29 31 -29 29 31 c16 17 26 34 22 38 -4 5 -2 5 5 2
6 -4 20 4 31 18 25 32 32 31 66 -4 l27 -28 -60 -60 -61 -59 30 -29 30 -29 60
59 60 59 32 -31 32 -32 -62 -63 -62 -62 25 -15 c13 -9 26 -21 27 -29 2 -8 29
12 66 49 l64 62 31 -32 31 -31 -59 -60 -59 -60 29 -30 29 -30 59 61 60 61 61
-61 62 -61 29 30 29 30 -57 58 c-61 62 -64 67 -44 85 44 42 43 42 106 -21 l59
-60 28 29 28 29 -30 32 c-16 17 -42 43 -58 58 l-30 27 25 31 c13 17 28 31 34
31 5 1 36 -25 67 -56 l58 -58 29 31 29 31 -46 44 c-76 72 -76 72 -46 103 15
14 30 26 34 26 4 0 33 -25 64 -56 l57 -57 30 29 29 28 -60 61 c-53 54 -59 63
-46 74 9 8 13 18 9 25 -3 6 -2 8 2 3 5 -4 16 0 25 8 16 14 22 11 73 -39 31
-29 53 -57 50 -60 -4 -3 -4 -6 -1 -6 8 0 58 48 58 56 0 4 -25 31 -56 61 l-56
55 24 26 c38 44 41 44 103 -19 l61 -59 29 30 29 30 -57 58 c-31 32 -57 61 -57
64 0 8 52 58 60 58 11 -1 90 -77 90 -88 0 -6 5 -14 12 -18 7 -5 8 -2 3 7 -6
11 -5 12 6 1 11 -10 17 -7 36 15 l23 26 -60 59 -59 59 59 57 c33 31 60 60 60
64 0 4 -11 19 -25 34 l-26 28 -63 -63 -64 -63 -30 33 -30 34 59 59 c62 63 70
76 42 76 -9 0 -14 3 -10 6 3 4 -1 13 -9 21 -17 17 -25 12 -100 -66 l-42 -43
-31 33 -32 33 62 62 62 62 -29 29 -29 29 -62 -63 -63 -63 -30 31 c-16 18 -30
34 -30 36 0 2 27 30 61 63 l61 59 -26 26 c-14 14 -29 25 -33 25 -5 0 -33 -25
-63 -55 -30 -30 -58 -55 -63 -55 -9 0 -57 50 -57 60 0 3 25 33 55 65 46 48 53
60 40 67 -8 5 -15 16 -15 23 0 24 -21 13 -75 -40 -27 -27 -56 -51 -62 -52 -13
-3 -63 42 -63 55 0 4 27 34 60 67 l60 59 -31 30 -30 29 -62 -61 -62 -61 -26
22 c-35 31 -41 51 -19 70 10 8 21 13 24 10 3 -4 6 -1 6 5 0 14 42 58 52 55 3
-1 9 4 12 12 3 9 -5 21 -19 31 -14 9 -22 20 -19 25 14 24 -12 3 -68 -52 l-60
-60 -31 28 c-17 15 -46 44 -64 63 -18 19 -33 29 -33 22z m157 -320 l-32 -33
-33 36 -33 35 24 24 c36 36 50 36 79 2 l26 -31 -31 -33z m-122 -62 l29 -30
-29 -30 c-35 -36 -40 -37 -70 -5 -28 31 -27 47 5 75 30 26 31 26 65 -10z m243
5 c11 -13 22 -21 26 -18 3 3 6 -1 6 -9 0 -16 -39 -62 -57 -65 -5 -1 -23 11
-38 27 l-29 30 29 30 c35 36 38 37 63 5z m-363 -121 c14 -15 25 -30 25 -34 0
-3 -13 -19 -30 -35 l-30 -29 -29 28 c-34 32 -34 47 -1 76 30 26 36 25 65 -6z
m259 -55 c-10 -4 -15 -8 -10 -8 9 -1 -28 -41 -38 -41 -2 0 -19 14 -36 31 l-31
32 33 34 33 34 34 -37 c32 -35 33 -38 15 -45z m235 48 l24 -29 -31 -31 -32
-31 -30 29 c-37 35 -37 40 -4 70 32 29 41 28 73 -8z m-602 -137 c10 -12 7 -20
-16 -44 l-29 -29 -36 29 c-41 33 -44 44 -16 51 11 3 17 9 15 14 -3 4 3 12 12
18 18 10 40 -3 70 -39z m226 27 c32 -31 41 -57 20 -57 -9 0 -14 -3 -10 -6 3
-3 -4 -15 -15 -26 l-20 -20 -34 33 -34 33 32 33 c18 18 33 33 35 33 2 0 14
-10 26 -23z m245 -10 l32 -33 -33 -32 c-32 -31 -34 -32 -53 -15 -45 42 -46 48
-17 81 16 17 30 31 34 32 3 0 19 -15 37 -33z m268 -15 c9 -10 5 -19 -18 -42
-16 -17 -33 -30 -37 -30 -4 0 -20 13 -35 29 l-29 30 34 30 c32 29 34 30 53 14
12 -10 26 -23 32 -31z m-879 -104 l33 -32 -31 -32 -32 -33 -33 32 c-32 29 -47
56 -24 42 6 -3 10 -1 10 4 0 11 30 48 40 50 2 1 19 -13 37 -31z m494 1 l31
-31 -33 -34 -33 -34 -35 34 -34 35 32 30 c18 17 35 31 37 31 2 0 17 -14 35
-31z m246 -60 c-31 -40 -41 -41 -76 -10 l-31 27 33 36 32 35 32 -30 32 -30
-22 -28z m265 27 c-2 -6 -15 -23 -30 -37 l-27 -27 -33 31 -32 31 32 33 31 32
31 -26 c17 -14 30 -31 28 -37z m-753 22 c28 -29 30 -33 14 -40 -10 -3 -14 -7
-9 -7 6 -1 0 -11 -13 -22 l-23 -21 -31 28 c-18 16 -34 30 -36 32 -6 3 51 62
60 62 4 0 21 -15 38 -32z m-372 -176 l-31 -32 -32 31 c-18 17 -30 38 -27 45 3
8 9 11 14 8 5 -3 9 2 9 10 0 8 8 19 17 24 13 8 24 3 49 -22 l32 -31 -31 -33z
m503 44 c10 -16 7 -23 -18 -49 l-30 -29 -25 28 c-31 35 -32 42 -5 76 20 26 21
27 43 10 13 -9 28 -25 35 -36z m696 45 c-3 -4 6 -13 19 -19 32 -15 32 -39 -2
-74 l-27 -28 -32 31 -32 31 32 34 c28 30 55 47 42 25z m-952 -30 c24 -25 26
-32 15 -48 -6 -11 -21 -26 -32 -33 -18 -11 -24 -8 -50 20 l-29 31 28 30 c15
16 31 29 34 29 3 0 19 -13 34 -29z m493 3 c23 -25 24 -27 6 -47 -38 -46 -46
-48 -75 -19 -34 32 -35 37 -2 67 34 31 41 31 71 -1z m238 -4 l29 -30 -31 -31
c-27 -26 -34 -28 -51 -18 -10 7 -25 21 -31 32 -11 16 -9 23 15 48 15 16 31 29
34 29 3 0 19 -14 35 -30z m-855 -118 c20 -19 29 -34 24 -45 -3 -9 -10 -15 -14
-12 -5 3 -11 -4 -15 -15 -9 -28 -26 -25 -60 10 l-29 30 29 30 c16 17 30 30 31
30 2 0 17 -13 34 -28z m245 -2 l29 -30 -31 -32 -31 -31 -33 31 c-35 32 -35 29
6 79 16 19 29 15 60 -17z m256 -11 c15 -15 14 -19 -13 -48 -16 -17 -30 -31
-32 -31 -2 0 -17 13 -33 29 l-30 29 29 31 c32 34 34 34 79 -10z m234 15 c14
-15 25 -29 25 -31 0 -2 -14 -17 -30 -35 l-31 -32 -31 32 -32 32 29 30 c35 37
40 37 70 4z m240 -4 l29 -30 -29 -30 c-33 -34 -47 -37 -66 -13 -12 14 -12 16
1 9 8 -4 4 1 -9 12 l-25 20 30 31 c16 17 31 31 35 31 3 0 18 -13 34 -30z
m-853 -121 l31 -31 -31 -31 -32 -31 -30 29 c-36 34 -36 39 -7 70 29 31 33 31
69 -6z m263 -42 c-4 -8 -18 -23 -32 -32 -24 -16 -26 -16 -55 13 l-29 31 32 31
33 31 28 -29 c19 -18 27 -34 23 -45z m237 28 c16 -19 16 -21 -14 -50 -29 -28
-33 -30 -48 -15 -44 46 -45 49 -15 80 30 32 38 30 77 -15z m233 20 c14 -14 25
-29 25 -34 0 -4 -14 -20 -30 -36 l-30 -29 -32 32 -32 31 30 30 c16 17 32 31
36 31 4 0 19 -11 33 -25z m-606 -134 c8 -11 18 -18 23 -15 15 9 8 -6 -10 -23
-48 -47 -51 -48 -82 -18 l-29 28 27 33 c28 35 44 34 71 -5z m261 -25 c0 -13
-41 -56 -54 -56 -5 0 -23 12 -38 27 l-28 27 32 33 32 33 28 -27 c15 -15 28
-31 28 -37z m232 19 c16 -19 15 -21 -10 -47 -31 -34 -33 -34 -66 -3 -32 30
-32 34 2 66 29 28 38 26 74 -16z m-352 -142 c0 -7 -4 -13 -10 -13 -5 0 -10 -7
-10 -15 0 -8 -7 -15 -15 -15 -8 0 -15 -5 -15 -12 0 -7 -16 3 -35 22 l-35 34
32 33 32 33 28 -28 c15 -15 28 -33 28 -39z m218 -30 l-32 -33 -28 27 c-35 33
-35 40 0 74 l27 28 33 -32 32 -31 -32 -33z m-118 -62 l28 -29 -32 -31 -32 -31
-32 33 -32 33 27 26 c36 34 40 34 73 -1z"/>
<path d="M798 922 c-15 -3 -16 -20 -15 -163 1 -100 -2 -159 -8 -160 -5 0 -39
-2 -75 -4 -80 -4 -97 -8 -147 -34 -73 -37 -113 -112 -112 -210 1 -103 52 -185
139 -224 35 -16 74 -21 173 -25 l127 -4 1 23 c0 32 0 747 0 779 -1 22 -5 26
-33 26 -18 0 -41 -2 -50 -4z m-15 -537 c-1 -99 -2 -196 -3 -216 l0 -36 -47 2
c-27 2 -61 9 -78 16 -16 7 -34 11 -40 10 -5 -2 -7 1 -3 4 4 4 -4 22 -17 39
-48 63 -52 190 -9 286 23 55 68 76 158 76 l41 0 -2 -181z"/>
<path d="M2101 514 l-1 -412 141 1 c77 0 142 4 145 9 3 4 13 8 22 8 27 0 90
57 115 103 33 62 32 196 -2 250 -52 84 -116 118 -231 123 -41 1 -78 3 -82 3
-3 1 -6 71 -6 156 1 85 -2 158 -6 162 -4 4 -27 8 -51 8 l-43 1 -1 -412z m221
38 c92 -37 139 -194 92 -313 -29 -74 -78 -105 -164 -104 l-45 0 -2 216 -1 215
46 -2 c26 -1 59 -7 74 -12z"/>
<path d="M1860 830 c-11 -11 -20 -31 -20 -45 0 -14 9 -34 20 -45 11 -11 31
-20 45 -20 14 0 34 9 45 20 11 11 20 31 20 45 0 14 -9 34 -20 45 -11 11 -31
20 -45 20 -14 0 -34 -9 -45 -20z"/>
<path d="M1032 589 c-39 -14 -44 -43 -44 -223 0 -218 0 -217 18 -241 13 -18
28 -20 157 -22 132 -2 182 5 164 23 -4 4 -54 8 -111 8 -62 1 -109 6 -117 13
-13 10 -15 44 -10 163 1 26 1 26 91 25 87 -1 90 0 90 22 0 22 -3 23 -90 23
-65 0 -90 3 -91 13 -2 33 2 160 5 166 3 4 52 6 110 6 91 -1 106 1 106 15 0 14
-18 16 -128 16 -71 1 -138 -3 -150 -7z"/>
<path d="M1426 584 c-17 -17 -17 -19 -17 -259 0 -250 -4 -226 31 -223 16 1 31
7 33 13 1 5 2 90 2 188 -1 97 2 177 6 177 7 0 79 -146 79 -161 0 -5 5 -9 10
-9 5 0 9 -3 8 -7 -5 -16 74 -169 98 -192 22 -20 29 -22 50 -12 14 6 28 20 32
31 4 12 8 121 7 242 l0 222 -32 3 c-38 5 -35 27 -34 -219 1 -87 -3 -158 -7
-158 -5 0 -20 25 -33 55 -13 30 -27 55 -31 55 -5 0 -8 9 -8 20 0 11 -5 20 -12
20 -6 0 -9 3 -6 6 3 3 -12 42 -35 87 -22 45 -41 85 -41 89 -2 15 -46 48 -65
48 -11 0 -27 -7 -35 -16z"/>
<path d="M1855 352 l0 -247 50 -3 50 -3 0 249 0 249 -50 1 -50 0 0 -246z"/>
</g>
</svg>
